<mxfile host="app.diagrams.net" modified="2022-05-12T10:19:08.014Z" agent="5.0 (Windows NT 10.0; Win64; x64) AppleWebKit/537.36 (KHTML, like Gecko) Chrome/101.0.4951.54 Safari/537.36" etag="PW8F5cF-anNMI8HAre9e" version="18.0.2" type="github">
  <diagram id="RrdyCtwL0D4G0qnUITEa" name="Page-1">
    <mxGraphModel dx="2863" dy="586" grid="1" gridSize="10" guides="1" tooltips="1" connect="1" arrows="1" fold="1" page="1" pageScale="1" pageWidth="1654" pageHeight="2336" math="0" shadow="0">
      <root>
        <mxCell id="0" />
        <mxCell id="1" parent="0" />
        <mxCell id="zAJ5OHnsCgj9TB66qjWZ-1" value="" style="rounded=1;whiteSpace=wrap;html=1;fontSize=14;strokeWidth=0;fillColor=#f8cecc;strokeColor=#FFFFFF;" vertex="1" parent="1">
          <mxGeometry x="-1329.6288744356198" y="820.3376633776635" width="46.70733440558704" height="19.736879736879743" as="geometry" />
        </mxCell>
        <mxCell id="zAJ5OHnsCgj9TB66qjWZ-2" value="" style="rounded=1;whiteSpace=wrap;html=1;fontSize=14;strokeWidth=0;fillColor=#f8cecc;strokeColor=#FFFFFF;" vertex="1" parent="1">
          <mxGeometry x="-1385.6776757223242" y="820.3376633776635" width="46.70733440558704" height="19.736879736879743" as="geometry" />
        </mxCell>
        <mxCell id="zAJ5OHnsCgj9TB66qjWZ-3" value="&lt;font style=&quot;font-size: 14px;&quot;&gt;&lt;b&gt;Reparameterization (Optional)&lt;/b&gt;&lt;/font&gt;" style="rounded=1;whiteSpace=wrap;html=1;fontFamily=Times New Roman;fontSize=17;fontColor=#050505;strokeColor=#050505;strokeWidth=2;fillColor=#FFFFFF;dashed=1;" vertex="1" parent="1">
          <mxGeometry x="-1480.44" y="878.1081081081081" width="210" height="48.693693693693696" as="geometry" />
        </mxCell>
        <mxCell id="zAJ5OHnsCgj9TB66qjWZ-4" value="&lt;font style=&quot;font-size: 14px;&quot;&gt;&lt;b&gt;...&lt;/b&gt;&lt;/font&gt;" style="text;html=1;strokeColor=none;fillColor=none;align=center;verticalAlign=middle;whiteSpace=wrap;rounded=0;" vertex="1" parent="1">
          <mxGeometry x="-1259.4647400020351" y="730.8169669669671" width="58.46493169033583" height="30.930930930930934" as="geometry" />
        </mxCell>
        <mxCell id="zAJ5OHnsCgj9TB66qjWZ-5" value="&lt;font style=&quot;font-size: 14px;&quot;&gt;&lt;b&gt;...&lt;/b&gt;&lt;/font&gt;" style="text;html=1;strokeColor=none;fillColor=none;align=center;verticalAlign=middle;whiteSpace=wrap;rounded=0;" vertex="1" parent="1">
          <mxGeometry x="-1183.3325366041827" y="730.8169669669671" width="58.46493169033583" height="30.930930930930934" as="geometry" />
        </mxCell>
        <mxCell id="zAJ5OHnsCgj9TB66qjWZ-6" value="&lt;font style=&quot;font-size: 14px;&quot;&gt;&lt;b&gt;...&lt;/b&gt;&lt;/font&gt;" style="text;html=1;strokeColor=none;fillColor=none;align=center;verticalAlign=middle;whiteSpace=wrap;rounded=0;" vertex="1" parent="1">
          <mxGeometry x="-1109.2609824380386" y="730.8169669669671" width="58.46493169033583" height="30.930930930930934" as="geometry" />
        </mxCell>
        <mxCell id="zAJ5OHnsCgj9TB66qjWZ-7" value="" style="rounded=1;whiteSpace=wrap;html=1;fontSize=14;strokeWidth=0;fillColor=#f8cecc;strokeColor=#FFFFFF;" vertex="1" parent="1">
          <mxGeometry x="-1328.6384848823955" y="726.0583840983842" width="46.70733440558704" height="19.736879736879743" as="geometry" />
        </mxCell>
        <mxCell id="zAJ5OHnsCgj9TB66qjWZ-8" value="" style="rounded=1;whiteSpace=wrap;html=1;fontSize=14;strokeWidth=0;fillColor=#f8cecc;strokeColor=#FFFFFF;" vertex="1" parent="1">
          <mxGeometry x="-1384.6872861691" y="726.0583840983842" width="46.70733440558704" height="19.736879736879743" as="geometry" />
        </mxCell>
        <mxCell id="zAJ5OHnsCgj9TB66qjWZ-9" value="" style="rounded=1;whiteSpace=wrap;html=1;fontSize=14;strokeWidth=0;fillColor=#f8cecc;strokeColor=#FFFFFF;" vertex="1" parent="1">
          <mxGeometry x="-1328.6384848823955" y="699.6595566995568" width="46.70733440558704" height="19.736879736879743" as="geometry" />
        </mxCell>
        <mxCell id="zAJ5OHnsCgj9TB66qjWZ-10" value="" style="rounded=1;whiteSpace=wrap;html=1;fontSize=14;strokeWidth=0;fillColor=#f8cecc;strokeColor=#FFFFFF;" vertex="1" parent="1">
          <mxGeometry x="-1384.6872861691" y="699.6595566995568" width="46.70733440558704" height="19.736879736879743" as="geometry" />
        </mxCell>
        <mxCell id="zAJ5OHnsCgj9TB66qjWZ-11" value="" style="rounded=1;whiteSpace=wrap;html=1;fontSize=14;strokeWidth=0;fillColor=#f8cecc;strokeColor=#FFFFFF;" vertex="1" parent="1">
          <mxGeometry x="-1328.6384848823955" y="754.0313570713572" width="46.70733440558704" height="19.736879736879743" as="geometry" />
        </mxCell>
        <mxCell id="zAJ5OHnsCgj9TB66qjWZ-12" value="" style="rounded=1;whiteSpace=wrap;html=1;fontSize=14;strokeWidth=0;fillColor=#f8cecc;strokeColor=#FFFFFF;" vertex="1" parent="1">
          <mxGeometry x="-1384.6872861691" y="754.0313570713572" width="46.70733440558704" height="19.736879736879743" as="geometry" />
        </mxCell>
        <mxCell id="zAJ5OHnsCgj9TB66qjWZ-13" value="" style="rounded=1;whiteSpace=wrap;html=1;fontSize=14;strokeWidth=0;fillColor=#f8cecc;strokeColor=#FFFFFF;" vertex="1" parent="1">
          <mxGeometry x="-1329.6288744356198" y="779.9322579722581" width="46.70733440558704" height="19.736879736879743" as="geometry" />
        </mxCell>
        <mxCell id="zAJ5OHnsCgj9TB66qjWZ-14" value="" style="rounded=1;whiteSpace=wrap;html=1;fontSize=14;strokeWidth=0;fillColor=#f8cecc;strokeColor=#FFFFFF;" vertex="1" parent="1">
          <mxGeometry x="-1385.6776757223242" y="779.9322579722581" width="46.70733440558704" height="19.736879736879743" as="geometry" />
        </mxCell>
        <mxCell id="zAJ5OHnsCgj9TB66qjWZ-15" value="&lt;font style=&quot;font-size: 14px;&quot;&gt;&lt;b&gt;...&lt;/b&gt;&lt;/font&gt;" style="text;html=1;strokeColor=none;fillColor=none;align=center;verticalAlign=middle;whiteSpace=wrap;rounded=0;" vertex="1" parent="1">
          <mxGeometry x="-1390.351589670964" y="731.1111583011583" width="56.048801286704446" height="29.60531960531961" as="geometry" />
        </mxCell>
        <mxCell id="zAJ5OHnsCgj9TB66qjWZ-16" value="&lt;font style=&quot;font-size: 14px;&quot;&gt;&lt;b&gt;...&lt;/b&gt;&lt;/font&gt;" style="text;html=1;strokeColor=none;fillColor=none;align=center;verticalAlign=middle;whiteSpace=wrap;rounded=0;" vertex="1" parent="1">
          <mxGeometry x="-1333.5883245873038" y="731.1111583011583" width="56.048801286704446" height="29.60531960531961" as="geometry" />
        </mxCell>
        <mxCell id="zAJ5OHnsCgj9TB66qjWZ-17" value="" style="group" vertex="1" connectable="0" parent="1">
          <mxGeometry x="-1504.2414349644193" y="694.7253367653368" width="108.36101582096192" height="29.60531960531964" as="geometry" />
        </mxCell>
        <mxCell id="zAJ5OHnsCgj9TB66qjWZ-18" value="" style="edgeStyle=orthogonalEdgeStyle;rounded=0;orthogonalLoop=1;jettySize=auto;html=1;fontSize=11;fontColor=#080808;shape=flexArrow;endSize=3.086792452830189;startSize=6;fillColor=#ffe6cc;strokeColor=#FFFFFF;strokeWidth=0;endWidth=7.020291918832325;width=3.3962264150943398;" edge="1" parent="zAJ5OHnsCgj9TB66qjWZ-17">
          <mxGeometry relative="1" as="geometry">
            <mxPoint x="117.70248270207918" y="14.634896324896363" as="sourcePoint" />
            <mxPoint x="89.67808205872696" y="14.634896324896363" as="targetPoint" />
            <Array as="points">
              <mxPoint x="108.36101582096192" y="14.634896324896305" />
              <mxPoint x="108.36101582096192" y="14.634896324896305" />
            </Array>
          </mxGeometry>
        </mxCell>
        <mxCell id="zAJ5OHnsCgj9TB66qjWZ-19" value="&lt;p&gt;&lt;font face=&quot;Times New Roman&quot; color=&quot;#080808&quot; style=&quot;font-size: 11px;&quot;&gt;&lt;b&gt;LayerN Prompts&lt;/b&gt;&lt;/font&gt;&lt;/p&gt;" style="text;html=1;strokeColor=none;fillColor=none;align=center;verticalAlign=middle;whiteSpace=wrap;rounded=0;dashed=1;fontSize=17;fontColor=#949494;opacity=50;" vertex="1" parent="zAJ5OHnsCgj9TB66qjWZ-17">
          <mxGeometry y="-5.18018018018018" width="93.41466881117408" height="29.60531960531961" as="geometry" />
        </mxCell>
        <mxCell id="zAJ5OHnsCgj9TB66qjWZ-20" value="" style="group" vertex="1" connectable="0" parent="1">
          <mxGeometry x="-1505.1922089355146" y="748.5992106392107" width="108.36101582096192" height="29.60531960531964" as="geometry" />
        </mxCell>
        <mxCell id="zAJ5OHnsCgj9TB66qjWZ-21" value="" style="edgeStyle=orthogonalEdgeStyle;rounded=0;orthogonalLoop=1;jettySize=auto;html=1;fontSize=11;fontColor=#080808;shape=flexArrow;endSize=3.086792452830189;startSize=6;fillColor=#ffe6cc;strokeColor=#FFFFFF;strokeWidth=0;endWidth=7.020291918832325;width=3.3962264150943398;" edge="1" parent="zAJ5OHnsCgj9TB66qjWZ-20">
          <mxGeometry relative="1" as="geometry">
            <mxPoint x="117.70248270207918" y="14.634896324896363" as="sourcePoint" />
            <mxPoint x="89.67808205872696" y="14.634896324896363" as="targetPoint" />
            <Array as="points">
              <mxPoint x="108.36101582096192" y="14.634896324896305" />
              <mxPoint x="108.36101582096192" y="14.634896324896305" />
            </Array>
          </mxGeometry>
        </mxCell>
        <mxCell id="zAJ5OHnsCgj9TB66qjWZ-22" value="&lt;p&gt;&lt;font face=&quot;Times New Roman&quot; color=&quot;#080808&quot; style=&quot;font-size: 11px;&quot;&gt;&lt;b&gt;Layer2 Prompts&lt;/b&gt;&lt;/font&gt;&lt;/p&gt;" style="text;html=1;strokeColor=none;fillColor=none;align=center;verticalAlign=middle;whiteSpace=wrap;rounded=0;dashed=1;fontSize=17;fontColor=#949494;opacity=50;" vertex="1" parent="zAJ5OHnsCgj9TB66qjWZ-20">
          <mxGeometry width="93.41466881117408" height="29.60531960531961" as="geometry" />
        </mxCell>
        <mxCell id="zAJ5OHnsCgj9TB66qjWZ-23" value="&lt;font style=&quot;font-size: 14px;&quot;&gt;&lt;b&gt;...&lt;/b&gt;&lt;/font&gt;" style="text;html=1;strokeColor=none;fillColor=none;align=center;verticalAlign=middle;whiteSpace=wrap;rounded=0;" vertex="1" parent="zAJ5OHnsCgj9TB66qjWZ-20">
          <mxGeometry x="26.15683200970764" y="-29.609673959673987" width="56.048801286704446" height="29.60531960531961" as="geometry" />
        </mxCell>
        <mxCell id="zAJ5OHnsCgj9TB66qjWZ-24" value="" style="group" vertex="1" connectable="0" parent="1">
          <mxGeometry x="-1505.1922089355146" y="773.4640755040755" width="108.36101582096192" height="29.60531960531964" as="geometry" />
        </mxCell>
        <mxCell id="zAJ5OHnsCgj9TB66qjWZ-25" value="" style="edgeStyle=orthogonalEdgeStyle;rounded=0;orthogonalLoop=1;jettySize=auto;html=1;fontSize=11;fontColor=#080808;shape=flexArrow;endSize=3.086792452830189;startSize=6;fillColor=#ffe6cc;strokeColor=#FFFFFF;strokeWidth=0;endWidth=7.020291918832325;width=3.3962264150943398;" edge="1" parent="zAJ5OHnsCgj9TB66qjWZ-24">
          <mxGeometry relative="1" as="geometry">
            <mxPoint x="117.70248270207918" y="14.634896324896363" as="sourcePoint" />
            <mxPoint x="89.67808205872696" y="14.634896324896363" as="targetPoint" />
            <Array as="points">
              <mxPoint x="108.36101582096192" y="14.634896324896305" />
              <mxPoint x="108.36101582096192" y="14.634896324896305" />
            </Array>
          </mxGeometry>
        </mxCell>
        <mxCell id="zAJ5OHnsCgj9TB66qjWZ-26" value="&lt;p&gt;&lt;font face=&quot;Times New Roman&quot; color=&quot;#080808&quot; style=&quot;font-size: 11px;&quot;&gt;&lt;b&gt;Layer1 Prompts&lt;/b&gt;&lt;/font&gt;&lt;/p&gt;" style="text;html=1;strokeColor=none;fillColor=none;align=center;verticalAlign=middle;whiteSpace=wrap;rounded=0;dashed=1;fontSize=17;fontColor=#949494;opacity=50;" vertex="1" parent="zAJ5OHnsCgj9TB66qjWZ-24">
          <mxGeometry width="93.41466881117408" height="29.60531960531961" as="geometry" />
        </mxCell>
        <mxCell id="zAJ5OHnsCgj9TB66qjWZ-27" value="" style="endArrow=none;dashed=1;html=1;rounded=0;shadow=0;sketch=0;fontFamily=Times New Roman;fontSize=14;fontColor=#050505;sourcePerimeterSpacing=2;targetPerimeterSpacing=2;strokeColor=#050505;jumpStyle=arc;strokeWidth=2;" edge="1" parent="1">
          <mxGeometry width="50" height="50" relative="1" as="geometry">
            <mxPoint x="-1085" y="679.1891891891892" as="sourcePoint" />
            <mxPoint x="-1485" y="901.936936936937" as="targetPoint" />
            <Array as="points">
              <mxPoint x="-1085" y="606.6666666666666" />
              <mxPoint x="-1525" y="606.6666666666666" />
              <mxPoint x="-1525" y="793.1531531531532" />
              <mxPoint x="-1525" y="901.936936936937" />
            </Array>
          </mxGeometry>
        </mxCell>
        <mxCell id="zAJ5OHnsCgj9TB66qjWZ-28" value="&lt;b&gt;Class Label&lt;/b&gt;" style="edgeLabel;html=1;align=center;verticalAlign=middle;resizable=0;points=[];fontSize=16;fontFamily=Times New Roman;fontColor=#050505;" vertex="1" connectable="0" parent="zAJ5OHnsCgj9TB66qjWZ-27">
          <mxGeometry x="-0.958" relative="1" as="geometry">
            <mxPoint x="1" y="-5" as="offset" />
          </mxGeometry>
        </mxCell>
        <mxCell id="zAJ5OHnsCgj9TB66qjWZ-29" value="&lt;b&gt;Optimization&lt;/b&gt;" style="text;html=1;strokeColor=none;fillColor=none;align=center;verticalAlign=middle;whiteSpace=wrap;rounded=0;glass=1;labelBackgroundColor=none;fontFamily=Times New Roman;fontSize=16;fontColor=#050505;" vertex="1" parent="1">
          <mxGeometry x="-1319.9927356760327" y="573.5135135135135" width="59.423373193456094" height="31.081081081081084" as="geometry" />
        </mxCell>
        <mxCell id="zAJ5OHnsCgj9TB66qjWZ-30" value="" style="endArrow=classic;html=1;rounded=0;shadow=0;sketch=0;fontFamily=Times New Roman;fontSize=16;fontColor=#050505;sourcePerimeterSpacing=1;targetPerimeterSpacing=1;strokeColor=#050505;jumpStyle=arc;entryX=0.5;entryY=1;entryDx=0;entryDy=0;exitX=0.5;exitY=0;exitDx=0;exitDy=0;startSize=1;endSize=3;" edge="1" parent="1" source="zAJ5OHnsCgj9TB66qjWZ-2" target="zAJ5OHnsCgj9TB66qjWZ-14">
          <mxGeometry width="50" height="50" relative="1" as="geometry">
            <mxPoint x="-1317.0181938229036" y="813.8738738738739" as="sourcePoint" />
            <mxPoint x="-1267.4987161616903" y="762.0720720720722" as="targetPoint" />
          </mxGeometry>
        </mxCell>
        <mxCell id="zAJ5OHnsCgj9TB66qjWZ-31" value="" style="endArrow=classic;html=1;rounded=0;shadow=0;sketch=0;fontFamily=Times New Roman;fontSize=16;fontColor=#050505;sourcePerimeterSpacing=1;targetPerimeterSpacing=1;strokeColor=#050505;jumpStyle=arc;entryX=0.5;entryY=1;entryDx=0;entryDy=0;exitX=0.5;exitY=0;exitDx=0;exitDy=0;startSize=1;endSize=3;" edge="1" parent="1">
          <mxGeometry width="50" height="50" relative="1" as="geometry">
            <mxPoint x="-1305.8718039857474" y="820.3376633776634" as="sourcePoint" />
            <mxPoint x="-1305.8718039857474" y="799.6691377091379" as="targetPoint" />
          </mxGeometry>
        </mxCell>
        <mxCell id="zAJ5OHnsCgj9TB66qjWZ-32" value="" style="group" vertex="1" connectable="0" parent="1">
          <mxGeometry x="-1230.6021979407028" y="799.6691377091379" width="212.93375394321768" height="18.670051480051352" as="geometry" />
        </mxCell>
        <mxCell id="zAJ5OHnsCgj9TB66qjWZ-33" value="" style="endArrow=classic;html=1;rounded=0;shadow=0;sketch=0;fontFamily=Times New Roman;fontSize=16;fontColor=#050505;sourcePerimeterSpacing=1;targetPerimeterSpacing=1;strokeColor=#050505;jumpStyle=arc;entryX=0.5;entryY=1;entryDx=0;entryDy=0;exitX=0.5;exitY=0;exitDx=0;exitDy=0;startSize=1;endSize=3;" edge="1" parent="zAJ5OHnsCgj9TB66qjWZ-32" source="zAJ5OHnsCgj9TB66qjWZ-67">
          <mxGeometry width="50" height="50" relative="1" as="geometry">
            <mxPoint y="20.668525668525568" as="sourcePoint" />
            <mxPoint as="targetPoint" />
          </mxGeometry>
        </mxCell>
        <mxCell id="zAJ5OHnsCgj9TB66qjWZ-34" value="" style="endArrow=classic;html=1;rounded=0;shadow=0;sketch=0;fontFamily=Times New Roman;fontSize=16;fontColor=#050505;sourcePerimeterSpacing=1;targetPerimeterSpacing=1;strokeColor=#050505;jumpStyle=arc;entryX=0.5;entryY=1;entryDx=0;entryDy=0;exitX=0.5;exitY=0;exitDx=0;exitDy=0;startSize=1;endSize=3;" edge="1" parent="zAJ5OHnsCgj9TB66qjWZ-32">
          <mxGeometry width="50" height="50" relative="1" as="geometry">
            <mxPoint x="76.06101238904067" y="18.670051480051352" as="sourcePoint" />
            <mxPoint x="76.25999559826866" as="targetPoint" />
          </mxGeometry>
        </mxCell>
        <mxCell id="zAJ5OHnsCgj9TB66qjWZ-35" value="" style="endArrow=classic;html=1;rounded=0;shadow=0;sketch=0;fontFamily=Times New Roman;fontSize=16;fontColor=#050505;sourcePerimeterSpacing=1;targetPerimeterSpacing=1;strokeColor=#050505;jumpStyle=arc;entryX=0.5;entryY=1;entryDx=0;entryDy=0;exitX=0.5;exitY=0;exitDx=0;exitDy=0;startSize=1;endSize=3;" edge="1" parent="zAJ5OHnsCgj9TB66qjWZ-32">
          <mxGeometry width="50" height="50" relative="1" as="geometry">
            <mxPoint x="150.3402288808608" y="18.670051480051352" as="sourcePoint" />
            <mxPoint x="150.53921209008877" as="targetPoint" />
          </mxGeometry>
        </mxCell>
        <mxCell id="zAJ5OHnsCgj9TB66qjWZ-36" value="" style="endArrow=classic;html=1;rounded=0;shadow=0;sketch=0;fontFamily=Times New Roman;fontSize=16;fontColor=#050505;sourcePerimeterSpacing=1;targetPerimeterSpacing=1;strokeColor=#050505;jumpStyle=arc;entryX=0.5;entryY=1;entryDx=0;entryDy=0;exitX=0.5;exitY=0;exitDx=0;exitDy=0;startSize=1;endSize=3;" edge="1" parent="zAJ5OHnsCgj9TB66qjWZ-32">
          <mxGeometry width="50" height="50" relative="1" as="geometry">
            <mxPoint x="212.73477073398968" y="18.670051480051352" as="sourcePoint" />
            <mxPoint x="212.93375394321768" as="targetPoint" />
          </mxGeometry>
        </mxCell>
        <mxCell id="zAJ5OHnsCgj9TB66qjWZ-37" value="" style="group" vertex="1" connectable="0" parent="1">
          <mxGeometry x="-1230.6021979407028" y="839.0385070785073" width="212.93375394321768" height="18.670051480051352" as="geometry" />
        </mxCell>
        <mxCell id="zAJ5OHnsCgj9TB66qjWZ-38" value="" style="endArrow=classic;html=1;rounded=0;shadow=0;sketch=0;fontFamily=Times New Roman;fontSize=16;fontColor=#050505;sourcePerimeterSpacing=1;targetPerimeterSpacing=1;strokeColor=#050505;jumpStyle=arc;entryX=0.5;entryY=1;entryDx=0;entryDy=0;exitX=0.5;exitY=0;exitDx=0;exitDy=0;startSize=1;endSize=3;" edge="1" parent="zAJ5OHnsCgj9TB66qjWZ-37">
          <mxGeometry width="50" height="50" relative="1" as="geometry">
            <mxPoint y="20.668525668525568" as="sourcePoint" />
            <mxPoint as="targetPoint" />
          </mxGeometry>
        </mxCell>
        <mxCell id="zAJ5OHnsCgj9TB66qjWZ-39" value="" style="endArrow=classic;html=1;rounded=0;shadow=0;sketch=0;fontFamily=Times New Roman;fontSize=16;fontColor=#050505;sourcePerimeterSpacing=1;targetPerimeterSpacing=1;strokeColor=#050505;jumpStyle=arc;entryX=0.5;entryY=1;entryDx=0;entryDy=0;exitX=0.5;exitY=0;exitDx=0;exitDy=0;startSize=1;endSize=3;" edge="1" parent="zAJ5OHnsCgj9TB66qjWZ-37">
          <mxGeometry width="50" height="50" relative="1" as="geometry">
            <mxPoint x="76.06101238904067" y="18.670051480051352" as="sourcePoint" />
            <mxPoint x="76.25999559826866" as="targetPoint" />
          </mxGeometry>
        </mxCell>
        <mxCell id="zAJ5OHnsCgj9TB66qjWZ-40" value="" style="endArrow=classic;html=1;rounded=0;shadow=0;sketch=0;fontFamily=Times New Roman;fontSize=16;fontColor=#050505;sourcePerimeterSpacing=1;targetPerimeterSpacing=1;strokeColor=#050505;jumpStyle=arc;entryX=0.5;entryY=1;entryDx=0;entryDy=0;exitX=0.5;exitY=0;exitDx=0;exitDy=0;startSize=1;endSize=3;" edge="1" parent="zAJ5OHnsCgj9TB66qjWZ-37">
          <mxGeometry width="50" height="50" relative="1" as="geometry">
            <mxPoint x="150.3402288808608" y="18.670051480051352" as="sourcePoint" />
            <mxPoint x="150.53921209008877" as="targetPoint" />
          </mxGeometry>
        </mxCell>
        <mxCell id="zAJ5OHnsCgj9TB66qjWZ-41" value="" style="endArrow=classic;html=1;rounded=0;shadow=0;sketch=0;fontFamily=Times New Roman;fontSize=16;fontColor=#050505;sourcePerimeterSpacing=1;targetPerimeterSpacing=1;strokeColor=#050505;jumpStyle=arc;entryX=0.5;entryY=1;entryDx=0;entryDy=0;exitX=0.5;exitY=0;exitDx=0;exitDy=0;startSize=1;endSize=3;" edge="1" parent="zAJ5OHnsCgj9TB66qjWZ-37">
          <mxGeometry width="50" height="50" relative="1" as="geometry">
            <mxPoint x="212.73477073398968" y="18.670051480051352" as="sourcePoint" />
            <mxPoint x="212.93375394321768" as="targetPoint" />
          </mxGeometry>
        </mxCell>
        <mxCell id="zAJ5OHnsCgj9TB66qjWZ-42" value="&lt;b&gt;[CLS]&lt;/b&gt;" style="text;html=1;strokeColor=none;fillColor=none;align=center;verticalAlign=middle;whiteSpace=wrap;rounded=0;glass=1;labelBackgroundColor=none;fontFamily=Times New Roman;fontSize=16;fontColor=#050505;" vertex="1" parent="1">
          <mxGeometry x="-1259.3874257207835" y="855.3153153153153" width="59.4233731934561" height="31.081081081081084" as="geometry" />
        </mxCell>
        <mxCell id="zAJ5OHnsCgj9TB66qjWZ-43" value="&lt;b&gt;Amazing&lt;/b&gt;" style="text;html=1;strokeColor=none;fillColor=none;align=center;verticalAlign=middle;whiteSpace=wrap;rounded=0;glass=1;labelBackgroundColor=none;fontFamily=Times New Roman;fontSize=16;fontColor=#050505;" vertex="1" parent="1">
          <mxGeometry x="-1187.088988335412" y="855.3153153153153" width="59.4233731934561" height="31.081081081081084" as="geometry" />
        </mxCell>
        <mxCell id="zAJ5OHnsCgj9TB66qjWZ-44" value="&lt;b&gt;movie&lt;/b&gt;" style="text;html=1;strokeColor=none;fillColor=none;align=center;verticalAlign=middle;whiteSpace=wrap;rounded=0;glass=1;labelBackgroundColor=none;fontFamily=Times New Roman;fontSize=16;fontColor=#050505;" vertex="1" parent="1">
          <mxGeometry x="-1110.8289927371434" y="855.3153153153153" width="59.4233731934561" height="31.081081081081084" as="geometry" />
        </mxCell>
        <mxCell id="zAJ5OHnsCgj9TB66qjWZ-45" value="&lt;font style=&quot;font-size: 22px;&quot;&gt;&lt;b&gt;(a)&amp;nbsp; P-tuning v2&lt;/b&gt;&lt;/font&gt;" style="text;html=1;strokeColor=none;fillColor=none;align=center;verticalAlign=middle;whiteSpace=wrap;rounded=0;glass=1;labelBackgroundColor=none;fontFamily=Times New Roman;fontSize=16;fontColor=#050505;" vertex="1" parent="1">
          <mxGeometry x="-1319.9893624825766" y="958.918918918919" width="191.14518377228376" height="31.081081081081084" as="geometry" />
        </mxCell>
        <mxCell id="zAJ5OHnsCgj9TB66qjWZ-46" value="" style="rounded=1;whiteSpace=wrap;html=1;fontFamily=Times New Roman;strokeColor=#050505;strokeWidth=2;fillColor=none;dashed=1;" vertex="1" parent="1">
          <mxGeometry x="-1510" y="675.0450450450451" width="241.56" height="176.15720720720722" as="geometry" />
        </mxCell>
        <mxCell id="zAJ5OHnsCgj9TB66qjWZ-47" value="" style="endArrow=classic;dashed=1;html=1;rounded=0;shadow=0;sketch=0;fontFamily=Times New Roman;fontSize=14;fontColor=#050505;sourcePerimeterSpacing=2;targetPerimeterSpacing=2;strokeColor=#050505;jumpStyle=arc;entryX=0.75;entryY=1;entryDx=0;entryDy=0;exitX=0.721;exitY=-0.016;exitDx=0;exitDy=0;exitPerimeter=0;startArrow=none;startFill=0;endFill=1;" edge="1" parent="1" source="zAJ5OHnsCgj9TB66qjWZ-3" target="zAJ5OHnsCgj9TB66qjWZ-46">
          <mxGeometry width="50" height="50" relative="1" as="geometry">
            <mxPoint x="-1168.4597608392635" y="803.5135135135135" as="sourcePoint" />
            <mxPoint x="-1118.94028317805" y="751.7117117117117" as="targetPoint" />
          </mxGeometry>
        </mxCell>
        <mxCell id="zAJ5OHnsCgj9TB66qjWZ-48" value="" style="rounded=0;whiteSpace=wrap;html=1;fillColor=#C9D6E8;strokeColor=#FFFFFF;strokeWidth=0;" vertex="1" parent="1">
          <mxGeometry x="-1039.7091189201085" y="699.8995495495495" width="41.23982099625852" height="20.617117117117118" as="geometry" />
        </mxCell>
        <mxCell id="zAJ5OHnsCgj9TB66qjWZ-49" value="" style="rounded=0;whiteSpace=wrap;html=1;fillColor=#C9D6E8;strokeColor=#FFFFFF;strokeWidth=0;" vertex="1" parent="1">
          <mxGeometry x="-1109.0363876458073" y="699.8995495495495" width="56.33335778739637" height="20.617117117117118" as="geometry" />
        </mxCell>
        <mxCell id="zAJ5OHnsCgj9TB66qjWZ-50" value="" style="rounded=0;whiteSpace=wrap;html=1;fillColor=#C9D6E8;strokeColor=#FFFFFF;strokeWidth=0;" vertex="1" parent="1">
          <mxGeometry x="-1193.2194996698702" y="700.231081081081" width="74.27921649182011" height="20.617117117117118" as="geometry" />
        </mxCell>
        <mxCell id="zAJ5OHnsCgj9TB66qjWZ-51" value="" style="rounded=0;whiteSpace=wrap;html=1;fillColor=#C9D6E8;strokeColor=#FFFFFF;strokeWidth=0;" vertex="1" parent="1">
          <mxGeometry x="-1257.406646614335" y="700.2310810810811" width="53.21093092880815" height="20.617117117117115" as="geometry" />
        </mxCell>
        <mxCell id="zAJ5OHnsCgj9TB66qjWZ-52" value="" style="rounded=0;whiteSpace=wrap;html=1;fillColor=#C9D6E8;strokeColor=#FFFFFF;strokeWidth=0;" vertex="1" parent="1">
          <mxGeometry x="-1039.7091189201085" y="725.8004504504505" width="41.23982099625852" height="20.617117117117118" as="geometry" />
        </mxCell>
        <mxCell id="zAJ5OHnsCgj9TB66qjWZ-53" value="" style="rounded=0;whiteSpace=wrap;html=1;fillColor=#C9D6E8;strokeColor=#FFFFFF;strokeWidth=0;" vertex="1" parent="1">
          <mxGeometry x="-1109.0363876458073" y="725.8004504504505" width="56.33335778739637" height="20.617117117117118" as="geometry" />
        </mxCell>
        <mxCell id="zAJ5OHnsCgj9TB66qjWZ-54" value="" style="rounded=0;whiteSpace=wrap;html=1;fillColor=#C9D6E8;strokeColor=#FFFFFF;strokeWidth=0;" vertex="1" parent="1">
          <mxGeometry x="-1193.2194996698702" y="726.1319819819819" width="74.27921649182011" height="20.617117117117118" as="geometry" />
        </mxCell>
        <mxCell id="zAJ5OHnsCgj9TB66qjWZ-55" value="" style="rounded=0;whiteSpace=wrap;html=1;fillColor=#C9D6E8;strokeColor=#FFFFFF;strokeWidth=0;" vertex="1" parent="1">
          <mxGeometry x="-1257.406646614335" y="726.1319819819821" width="53.21093092880815" height="20.617117117117115" as="geometry" />
        </mxCell>
        <mxCell id="zAJ5OHnsCgj9TB66qjWZ-56" value="" style="rounded=0;whiteSpace=wrap;html=1;fillColor=#C9D6E8;strokeColor=#FFFFFF;strokeWidth=0;" vertex="1" parent="1">
          <mxGeometry x="-1039.7091189201085" y="753.7734234234234" width="41.23982099625852" height="20.617117117117118" as="geometry" />
        </mxCell>
        <mxCell id="zAJ5OHnsCgj9TB66qjWZ-57" value="" style="rounded=0;whiteSpace=wrap;html=1;fillColor=#C9D6E8;strokeColor=#FFFFFF;strokeWidth=0;" vertex="1" parent="1">
          <mxGeometry x="-1109.0363876458073" y="753.7734234234234" width="56.33335778739637" height="20.617117117117118" as="geometry" />
        </mxCell>
        <mxCell id="zAJ5OHnsCgj9TB66qjWZ-58" value="" style="rounded=0;whiteSpace=wrap;html=1;fillColor=#C9D6E8;strokeColor=#FFFFFF;strokeWidth=0;" vertex="1" parent="1">
          <mxGeometry x="-1193.2194996698702" y="754.1049549549549" width="74.27921649182011" height="20.617117117117118" as="geometry" />
        </mxCell>
        <mxCell id="zAJ5OHnsCgj9TB66qjWZ-59" value="" style="rounded=0;whiteSpace=wrap;html=1;fillColor=#C9D6E8;strokeColor=#FFFFFF;strokeWidth=0;" vertex="1" parent="1">
          <mxGeometry x="-1257.406646614335" y="754.104954954955" width="53.21093092880815" height="20.617117117117115" as="geometry" />
        </mxCell>
        <mxCell id="zAJ5OHnsCgj9TB66qjWZ-60" value="" style="rounded=0;whiteSpace=wrap;html=1;fillColor=#C9D6E8;strokeColor=#FFFFFF;strokeWidth=0;" vertex="1" parent="1">
          <mxGeometry x="-1039.7091189201085" y="779.6743243243243" width="41.23982099625852" height="20.617117117117118" as="geometry" />
        </mxCell>
        <mxCell id="zAJ5OHnsCgj9TB66qjWZ-61" value="" style="rounded=0;whiteSpace=wrap;html=1;fillColor=#C9D6E8;strokeColor=#FFFFFF;strokeWidth=0;" vertex="1" parent="1">
          <mxGeometry x="-1109.0363876458073" y="779.6743243243243" width="56.33335778739637" height="20.617117117117118" as="geometry" />
        </mxCell>
        <mxCell id="zAJ5OHnsCgj9TB66qjWZ-62" value="" style="rounded=0;whiteSpace=wrap;html=1;fillColor=#C9D6E8;strokeColor=#FFFFFF;strokeWidth=0;" vertex="1" parent="1">
          <mxGeometry x="-1193.2194996698702" y="780.0058558558558" width="74.27921649182011" height="20.617117117117118" as="geometry" />
        </mxCell>
        <mxCell id="zAJ5OHnsCgj9TB66qjWZ-63" value="" style="rounded=0;whiteSpace=wrap;html=1;fillColor=#C9D6E8;strokeColor=#FFFFFF;strokeWidth=0;" vertex="1" parent="1">
          <mxGeometry x="-1257.406646614335" y="780.005855855856" width="53.21093092880815" height="20.617117117117115" as="geometry" />
        </mxCell>
        <mxCell id="zAJ5OHnsCgj9TB66qjWZ-64" value="&lt;font face=&quot;Times New Roman&quot;&gt;&lt;b&gt;e&lt;span style=&quot;&quot;&gt;(!)&lt;/span&gt;&lt;/b&gt;&lt;/font&gt;" style="rounded=0;whiteSpace=wrap;html=1;fillColor=#C9D6E8;strokeColor=#FFFFFF;strokeWidth=0;" vertex="1" parent="1">
          <mxGeometry x="-1039.7091189201085" y="818.0076576576577" width="41.23982099625852" height="20.617117117117118" as="geometry" />
        </mxCell>
        <mxCell id="zAJ5OHnsCgj9TB66qjWZ-65" value="&lt;font face=&quot;Times New Roman&quot;&gt;&lt;b&gt;e&lt;span style=&quot;&quot;&gt;(movie)&lt;/span&gt;&lt;/b&gt;&lt;/font&gt;" style="rounded=0;whiteSpace=wrap;html=1;fillColor=#C9D6E8;strokeColor=#FFFFFF;strokeWidth=0;" vertex="1" parent="1">
          <mxGeometry x="-1109.0363876458073" y="818.0076576576577" width="56.33335778739637" height="20.617117117117118" as="geometry" />
        </mxCell>
        <mxCell id="zAJ5OHnsCgj9TB66qjWZ-66" value="&lt;font face=&quot;Times New Roman&quot;&gt;&lt;b&gt;e&lt;span style=&quot;&quot;&gt;(Amazing)&lt;/span&gt;&lt;/b&gt;&lt;/font&gt;" style="rounded=0;whiteSpace=wrap;html=1;fillColor=#C9D6E8;strokeColor=#FFFFFF;strokeWidth=0;" vertex="1" parent="1">
          <mxGeometry x="-1193.2194996698702" y="818.3391891891891" width="74.27921649182011" height="20.617117117117118" as="geometry" />
        </mxCell>
        <mxCell id="zAJ5OHnsCgj9TB66qjWZ-67" value="&lt;font face=&quot;Times New Roman&quot;&gt;&lt;b&gt;e(CLS)&lt;/b&gt;&lt;/font&gt;" style="rounded=0;whiteSpace=wrap;html=1;fillColor=#C9D6E8;strokeColor=#FFFFFF;strokeWidth=0;" vertex="1" parent="1">
          <mxGeometry x="-1257.406646614335" y="818.3391891891893" width="53.21093092880815" height="20.617117117117115" as="geometry" />
        </mxCell>
        <mxCell id="zAJ5OHnsCgj9TB66qjWZ-68" value="&lt;b style=&quot;font-family: &amp;quot;Times New Roman&amp;quot;; font-size: 20px; font-style: normal; font-variant-ligatures: normal; font-variant-caps: normal; letter-spacing: normal; orphans: 2; text-align: center; text-indent: 0px; text-transform: none; widows: 2; word-spacing: 0px; -webkit-text-stroke-width: 0px; text-decoration-thickness: initial; text-decoration-style: initial; text-decoration-color: initial;&quot;&gt;&lt;font color=&quot;#969696&quot;&gt;Transformers&lt;/font&gt;&lt;/b&gt;" style="text;whiteSpace=wrap;html=1;fontSize=14;fontFamily=Times New Roman;fontColor=#050505;" vertex="1" parent="1">
          <mxGeometry x="-1193.457956863033" y="748.6036036036035" width="138.65453745139754" height="41.44144144144144" as="geometry" />
        </mxCell>
      </root>
    </mxGraphModel>
  </diagram>
</mxfile>
